<?xml version="1.0" standalone="no"?>
<!DOCTYPE svg PUBLIC "-//W3C//DTD SVG 20010904//EN"
 "http://www.w3.org/TR/2001/REC-SVG-20010904/DTD/svg10.dtd">
<svg version="1.0" xmlns="http://www.w3.org/2000/svg"
 width="240.000000pt" height="240.000000pt" viewBox="0 0 240.000000 240.000000"
 preserveAspectRatio="xMidYMid meet">

<g transform="translate(0.000000,240.000000) scale(0.100000,-0.100000)"
fill="#000000" stroke="none">
<path d="M1139 2391 c-14 -4 -225 -109 -469 -231 -486 -245 -507 -259 -535
-353 -22 -75 -22 -1139 0 -1214 29 -96 49 -110 547 -360 451 -226 453 -227
518 -227 65 0 65 0 519 228 498 251 518 264 546 359 22 75 22 1139 0 1214 -29
96 -49 110 -546 358 -472 237 -506 250 -580 226z m293 -377 c117 -58 225 -115
240 -126 63 -44 18 -108 -157 -223 -62 -40 -126 -90 -141 -111 -25 -32 -29
-46 -29 -103 0 -36 7 -94 15 -129 10 -47 11 -67 3 -80 -25 -39 -95 5 -135 83
-45 89 -133 93 -215 10 -34 -34 -43 -50 -43 -77 0 -53 31 -83 146 -140 99 -49
109 -52 177 -51 40 1 130 9 201 18 152 19 210 11 283 -38 57 -39 79 -73 69
-111 -4 -15 -37 -60 -75 -100 -37 -39 -110 -134 -161 -211 -52 -77 -116 -164
-144 -194 -60 -63 -171 -124 -218 -119 -50 5 -54 24 -29 128 28 112 22 142
-44 224 -58 70 -65 91 -65 184 0 89 -11 136 -43 183 -33 49 -85 80 -245 143
-172 68 -270 116 -298 147 -12 13 -45 78 -74 144 -61 140 -76 228 -44 257 30
26 769 398 792 398 11 0 116 -48 234 -106z"/>
</g>
</svg>
